<svg width="131" height="30" viewBox="0 0 131 30" fill="none" xmlns="http://www.w3.org/2000/svg">
<path d="M43.9691 0.82959C45.8402 0.82959 49.1486 1.23714 51.6743 1.71018V2.2269C51.6387 2.2269 47.2845 1.71018 43.9691 1.71018C38.6757 1.71018 36.086 4.28647 36.086 14.5989C36.086 22.99 38.5334 27.4148 44.0047 27.4148C47.7826 27.4148 51.6743 26.9709 51.6743 26.9709V27.4876C49.1557 27.9679 45.8402 28.2954 43.9691 28.2954C37.3097 28.2954 35.2251 22.4442 35.2251 14.5261C35.2251 6.05493 36.6623 0.82959 43.9691 0.82959Z" fill="white"/>
<path d="M43.969 28.6811C37.829 28.6811 34.8408 24.0525 34.8408 14.5261C34.8408 5.8293 36.3705 0.443848 43.969 0.443848C45.7548 0.443848 49.0276 0.815007 51.7383 1.33172C51.9161 1.36811 52.0513 1.52822 52.0513 1.71743V2.23415C52.0513 2.4452 51.8806 2.61986 51.6742 2.61986C51.6671 2.61986 51.6102 2.61258 51.5106 2.60531C49.8102 2.41609 46.5588 2.10315 43.969 2.10315C39.2164 2.10315 36.4701 4.14816 36.4701 14.5989C36.4701 22.9609 38.9389 27.0218 44.0046 27.0218C47.7185 27.0218 51.5888 26.5851 51.6315 26.5851C51.7383 26.5706 51.845 26.607 51.9304 26.6797C52.0086 26.7525 52.0584 26.8617 52.0584 26.9708V27.4875C52.0584 27.6768 51.9304 27.8369 51.7454 27.8733C49.2908 28.3318 45.9469 28.6811 43.969 28.6811ZM43.969 1.21528C36.9752 1.21528 35.6021 6.09129 35.6021 14.5188C35.6021 23.5212 38.3413 27.9024 43.969 27.9024C44.8726 27.9024 46.0678 27.8296 47.3343 27.6986C46.2813 27.7568 45.1358 27.7932 44.0046 27.7932C38.4195 27.7932 35.7088 23.4776 35.7088 14.5916C35.7088 4.91232 37.95 1.31716 43.969 1.31716C45.0077 1.31716 46.1461 1.36811 47.256 1.44088C45.9682 1.30261 44.8014 1.21528 43.969 1.21528Z" fill="white"/>
<path d="M43.9687 28.725C40.6817 28.725 38.2414 27.3349 36.7259 24.5913C35.4239 22.2406 34.7979 18.9438 34.7979 14.5263C34.7979 9.61388 35.3172 6.46266 36.484 4.29393C37.8928 1.67398 40.3473 0.400391 43.9687 0.400391C45.9964 0.400391 49.4186 0.851604 51.7451 1.28826L52.0937 1.35376V2.66374H51.6668C51.6597 2.66374 51.6028 2.65646 51.5032 2.64918C49.8028 2.45996 46.5585 2.14702 43.9687 2.14702C41.2296 2.14702 39.5149 2.88206 38.3908 4.53409C37.1101 6.42627 36.5125 9.62843 36.5125 14.5918C36.5125 22.9174 38.96 26.971 44.0043 26.971C47.7182 26.971 51.5886 26.5344 51.6241 26.5344L52.0937 26.4834V27.8444L51.7451 27.9099C49.2976 28.3756 45.9466 28.725 43.9687 28.725ZM43.9687 1.25915C37.0105 1.25915 35.6445 6.12061 35.6445 14.519C35.6445 23.4923 38.3694 27.8516 43.9687 27.8516C44.2604 27.8516 44.5877 27.8444 44.9434 27.8298C44.6304 27.8371 44.3173 27.8371 44.0114 27.8371C38.3979 27.8371 35.6658 23.5069 35.6658 14.5918C35.6658 4.88341 37.9141 1.27371 43.9687 1.27371C44.2675 1.27371 44.5806 1.28098 44.8936 1.28826C44.5521 1.27371 44.2391 1.25915 43.9687 1.25915Z" fill="white"/>
<path d="M43.9688 29.1106C40.5324 29.1106 37.9854 27.655 36.3988 24.7731C35.0683 22.3569 34.4209 19.0019 34.4209 14.5189C34.4209 9.54098 34.9545 6.32427 36.1569 4.09731C37.6439 1.33908 40.198 0 43.976 0C46.0321 0 49.4756 0.451213 51.8235 0.895149L52.1721 0.960648C52.35 0.997036 52.4851 1.15714 52.4851 1.34636V2.65634C52.4851 2.86739 52.3144 3.04205 52.1081 3.04205H51.6812C51.6741 3.04205 51.6029 3.04205 51.4749 3.0275C49.7816 2.83828 46.5515 2.53262 43.976 2.53262C41.3791 2.53262 39.7569 3.21672 38.7111 4.7523C37.4731 6.57898 36.8968 9.70837 36.8968 14.5917C36.8968 22.6626 39.2233 26.5779 44.0115 26.5779C47.7183 26.5779 51.5531 26.1486 51.5887 26.1413L52.0583 26.0903C52.165 26.0758 52.2717 26.1122 52.3571 26.1849C52.4353 26.2577 52.4851 26.3669 52.4851 26.476V27.837C52.4851 28.0262 52.3571 28.1863 52.1721 28.2154L51.8235 28.2809C49.3404 28.7612 45.9681 29.1106 43.9688 29.1106ZM43.9688 0.778707C40.4969 0.778707 38.1561 1.9868 36.8186 4.47575C35.6873 6.57898 35.1822 9.67926 35.1822 14.5189C35.1822 18.8709 35.8012 22.1022 37.0605 24.3946C38.5047 27.0073 40.8313 28.3318 43.9688 28.3318C45.9325 28.3318 49.248 27.9825 51.6812 27.524L51.7168 27.5167V26.9127L51.667 26.92C51.6314 26.9273 47.7539 27.3639 44.0044 27.3639C38.704 27.3639 36.1284 23.1866 36.1284 14.5989C36.1284 9.54826 36.7474 6.2806 38.0779 4.31564C39.2731 2.54717 41.0945 1.76119 43.9688 1.76119C46.5799 1.76119 49.8385 2.07413 51.546 2.26335C51.6243 2.27062 51.6741 2.2779 51.6883 2.2779H51.7168V1.68113L51.6812 1.67386C49.3689 1.22264 45.9752 0.778707 43.9688 0.778707ZM43.9688 28.2445C38.1134 28.2445 35.2675 23.7542 35.2675 14.5189C35.2675 6.09138 36.7261 0.866038 43.9688 0.866038C44.2463 0.866038 44.5665 0.873316 44.908 0.895149C45.1143 0.902427 45.2779 1.08437 45.2708 1.29542C45.2637 1.50647 45.1001 1.68113 44.8795 1.66658C44.5665 1.6593 44.2605 1.65202 43.9688 1.65202C38.1134 1.65202 36.0431 5.03613 36.0431 14.5844C36.0431 23.2375 38.647 27.444 44.0044 27.444C44.3103 27.444 44.6234 27.444 44.9364 27.4367H44.9436C45.1499 27.4367 45.3206 27.6041 45.3206 27.8151C45.3278 28.0262 45.1641 28.2081 44.9578 28.2154C44.602 28.2372 44.2677 28.2445 43.9688 28.2445Z" fill="white"/>
<path d="M65.1284 1.12109H66.3521L75.7862 28.0702H74.8471L71.5743 18.7548H59.586L56.1994 28.0702H55.2603L65.1284 1.12109ZM71.247 17.8742L65.7402 2.00897L59.9062 17.8742H71.247Z" fill="white"/>
<path d="M75.7861 28.4558H74.8469C74.6833 28.4558 74.541 28.3539 74.4912 28.2011L71.3038 19.1404H59.8491L56.555 28.2011C56.4981 28.3539 56.3558 28.4558 56.1993 28.4558H55.2601C55.1321 28.4558 55.0182 28.3903 54.9471 28.2884C54.8759 28.1866 54.8617 28.0483 54.9044 27.9318L64.7725 0.982745C64.8294 0.829914 64.9717 0.728027 65.1282 0.728027H66.352C66.5156 0.728027 66.6579 0.829914 66.7077 0.982745L76.1347 27.9318C76.1774 28.0483 76.156 28.1866 76.0849 28.2884C76.0137 28.3903 75.907 28.4558 75.7861 28.4558ZM75.1173 27.6844H75.2453L66.0887 1.50673H65.3986L55.8151 27.6844H55.936L59.2301 18.6237C59.287 18.4709 59.4293 18.369 59.5859 18.369H71.5742C71.7378 18.369 71.8801 18.4709 71.9299 18.6237L75.1173 27.6844ZM71.2469 18.2599H59.9131C59.7851 18.2599 59.6712 18.1944 59.6001 18.0925C59.5289 17.9906 59.5147 17.8523 59.5574 17.7359L65.3915 1.87062C65.4484 1.71779 65.612 1.62318 65.7472 1.6159C65.9037 1.6159 66.046 1.71779 66.1029 1.87789L71.6097 17.7431C71.6524 17.8596 71.6311 17.9979 71.5599 18.0997C71.4888 18.2016 71.3749 18.2599 71.2469 18.2599ZM60.461 17.4811H70.7133L65.733 3.13693L60.461 17.4811Z" fill="white"/>
<path d="M76.3836 28.5065H74.548L71.2752 19.1911H59.8846L56.498 28.5065H54.6553L64.8364 0.684082H66.6507L76.3836 28.5065ZM75.1456 27.6332H75.1812L66.053 1.5574H66.0317L71.8444 18.3105H59.3012L65.4554 1.5574H65.4269L55.879 27.6332H55.9075L59.2941 18.3178H71.8729L75.1456 27.6332ZM60.5249 17.4372H70.6491L65.7329 3.26764L60.5249 17.4372Z" fill="white"/>
<path d="M76.3835 28.8922H74.5479C74.3842 28.8922 74.2419 28.7903 74.1921 28.6375L71.0047 19.5768H60.1477L56.8536 28.6375C56.7967 28.7903 56.6544 28.8922 56.4978 28.8922H54.6551C54.5271 28.8922 54.4132 28.8267 54.3421 28.7248C54.2709 28.6229 54.2567 28.4846 54.2994 28.3682L64.4806 0.553057C64.5375 0.400227 64.6798 0.29834 64.8363 0.29834H66.6505C66.8142 0.29834 66.9565 0.400227 67.0063 0.553057L76.7392 28.3682C76.7819 28.4846 76.7606 28.6229 76.6894 28.7248C76.6254 28.834 76.5115 28.8922 76.3835 28.8922ZM74.8182 28.1135H75.8499L66.3873 1.06977H65.0995L55.203 28.1135H56.2346L59.5287 19.0528C59.5856 18.9 59.7279 18.7981 59.8845 18.7981H71.2751C71.4387 18.7981 71.581 18.9 71.6308 19.0528L74.8182 28.1135ZM75.1811 28.0261C75.0174 28.0261 74.8467 27.9243 74.7898 27.7714L71.6024 18.7108H59.5572L56.2631 27.7714C56.2061 27.9243 56.0639 28.0261 55.9073 28.0261C55.7793 28.0261 55.6512 27.9606 55.58 27.8588C55.5089 27.7569 55.4804 27.6186 55.5231 27.5022L65.0711 1.4191C65.128 1.26627 65.2703 1.16438 65.4268 1.16438C65.5406 1.16438 65.6687 1.2226 65.7399 1.30993C65.9106 1.08432 66.3233 1.14982 66.4158 1.4191L75.5439 27.5022C75.5866 27.6186 75.5653 27.7569 75.4941 27.8588C75.423 27.9606 75.302 28.0261 75.1811 28.0261ZM59.8489 17.9175H71.3107L65.7399 1.87031L59.8489 17.9175ZM70.649 17.8229H60.5248C60.3967 17.8229 60.2829 17.7574 60.2117 17.6555C60.1406 17.5536 60.1264 17.4153 60.169 17.2989L65.377 3.12934C65.4339 2.97651 65.5762 2.87462 65.7327 2.87462C65.8893 2.87462 66.0316 2.97651 66.0885 3.13662L71.0047 17.3062C71.0474 17.4226 71.0261 17.5609 70.9549 17.6628C70.8909 17.7647 70.77 17.8229 70.649 17.8229ZM61.0726 17.0515H70.1083L65.7185 4.40293L61.0726 17.0515Z" fill="white"/>
<path d="M80.6807 1.12109H81.5771L97.4145 26.3745V1.12109H98.2825V28.0702H97.4145L81.5415 2.81678V28.0702H80.6807V1.12109Z" fill="white"/>
<path d="M98.2823 28.4559H97.4214C97.2934 28.4559 97.1724 28.3904 97.1013 28.2739L81.9256 4.13401V28.0702C81.9256 28.2812 81.7548 28.4559 81.5485 28.4559H80.6876C80.4742 28.4559 80.3105 28.2812 80.3105 28.0702V1.12107C80.3105 0.910015 80.4813 0.735352 80.6876 0.735352H81.5841C81.7121 0.735352 81.8331 0.80085 81.9042 0.917292L97.0372 25.0572V1.12107C97.0372 0.910015 97.208 0.735352 97.4143 0.735352H98.2752C98.4886 0.735352 98.6523 0.910015 98.6523 1.12107V28.0702C98.6594 28.2812 98.4886 28.4559 98.2823 28.4559ZM97.6206 27.6844H97.8981V1.50678H97.7914V26.3745C97.7914 26.5491 97.6776 26.702 97.521 26.7456C97.3574 26.7966 97.1866 26.7311 97.0942 26.5855L81.3706 1.50678H81.0576V27.6772H81.1643V2.81676C81.1643 2.64209 81.2782 2.48926 81.4347 2.4456C81.5983 2.39465 81.7691 2.46015 81.8616 2.6057L97.6206 27.6844Z" fill="white"/>
<path d="M98.7026 28.5065H97.1801L81.9617 4.29379V28.5065H80.2471V0.684082H81.8052L96.988 24.8895V0.684082H98.7026V28.5065ZM97.8417 27.6332H97.856V1.5574H97.8417V27.6332ZM97.6497 27.6332H97.7066L81.3499 1.5574H81.2574L97.6497 27.6332ZM81.1008 27.6332H81.1151V1.5574H81.1008V27.6332Z" fill="white"/>
<path d="M98.7025 28.8922H97.1799C97.0519 28.8922 96.9309 28.8267 96.8598 28.7102L82.3458 5.61102V28.5065C82.3458 28.7175 82.175 28.8922 81.9687 28.8922H80.254C80.0406 28.8922 79.877 28.7175 79.877 28.5065V0.684054C79.877 0.473003 80.0477 0.29834 80.254 0.29834H81.8122C81.9402 0.29834 82.0612 0.363839 82.1323 0.480281L96.6108 23.5722V0.684054C96.6108 0.473003 96.7815 0.29834 96.9878 0.29834H98.7025C98.9159 0.29834 99.0796 0.473003 99.0796 0.684054V28.5065C99.0867 28.7175 98.9159 28.8922 98.7025 28.8922ZM97.3934 28.1135H98.3254V1.07705H97.372V24.8968C97.372 25.0714 97.2582 25.2243 97.1017 25.2679C96.938 25.3189 96.7673 25.2534 96.6748 25.1078L81.6058 1.07705H80.6382V28.1135H81.5916V4.29376C81.5916 4.1191 81.7054 3.96627 81.862 3.9226C82.0256 3.87166 82.1964 3.93716 82.2888 4.08271L97.3934 28.1135ZM97.8558 28.0261C97.8274 28.0261 97.806 28.0261 97.7776 28.0189C97.7562 28.0261 97.7278 28.0261 97.6993 28.0261H97.6424C97.5143 28.0261 97.3934 27.9606 97.3222 27.8442L81.492 2.65629V27.6332C81.492 27.8442 81.3212 28.0189 81.1149 28.0189C80.9015 28.0189 80.7236 27.8442 80.7236 27.6332V1.55737C80.7236 1.31721 80.9513 1.12799 81.1789 1.17893C81.2003 1.17166 81.2287 1.17166 81.2572 1.17166H81.3497C81.4778 1.17166 81.5987 1.23716 81.6699 1.3536L97.4645 26.5415V1.55737C97.4645 1.34632 97.6353 1.17166 97.8416 1.17166C98.055 1.17166 98.2329 1.34632 98.2329 1.55737V27.6332C98.2329 27.8515 98.0622 28.0261 97.8558 28.0261Z" fill="white"/>
<path d="M103.861 1.12061L112.967 27.1891L122.501 1.12061H123.44L113.579 28.0697H112.355L102.921 1.12061H103.861Z" fill="white"/>
<path d="M113.579 28.4553H112.356C112.192 28.4553 112.05 28.3534 112 28.2006L102.566 1.25148C102.523 1.13504 102.545 0.996765 102.616 0.894878C102.687 0.792991 102.801 0.727493 102.929 0.727493H103.861C104.024 0.727493 104.167 0.82938 104.216 0.98221L112.975 26.0464L122.146 0.974932C122.202 0.822102 122.345 0.720215 122.501 0.720215H123.433C123.561 0.720215 123.675 0.785714 123.746 0.887601C123.817 0.989488 123.832 1.12776 123.789 1.24421L113.928 28.1933C113.878 28.3607 113.736 28.4553 113.579 28.4553ZM112.619 27.6839H113.309L122.893 1.5062H122.772L113.323 27.32C113.266 27.4728 113.103 27.5747 112.968 27.5747C112.811 27.5747 112.669 27.4728 112.612 27.32L103.59 1.5062H103.462L112.619 27.6839Z" fill="white"/>
<path d="M113.871 28.506H112.056L102.316 0.683594H104.152L112.967 25.9224L122.202 0.683594H124.045L113.871 28.506ZM113.252 27.6327H113.28L122.821 1.54963H122.793L113.252 27.6327ZM112.654 27.6327H112.675L103.561 1.55691H103.526L112.654 27.6327Z" fill="white"/>
<path d="M113.871 28.8921H112.057C111.893 28.8921 111.751 28.7902 111.701 28.6374L101.961 0.814959C101.918 0.698517 101.94 0.560242 102.011 0.458355C102.082 0.356468 102.196 0.290969 102.324 0.290969H104.159C104.323 0.290969 104.465 0.392856 104.515 0.545687L112.982 24.7802L121.854 0.538409C121.911 0.385578 122.053 0.283691 122.209 0.283691H124.052C124.18 0.283691 124.294 0.34919 124.365 0.451077C124.436 0.552964 124.45 0.691239 124.408 0.807682L114.227 28.6228C114.17 28.7902 114.027 28.8921 113.871 28.8921ZM112.32 28.1134H113.608L123.504 1.07695H122.473L113.33 26.0611C113.273 26.2139 113.131 26.3158 112.974 26.3158C112.818 26.3158 112.676 26.2139 112.619 26.0611L103.889 1.07695H102.857L112.32 28.1134ZM113.28 28.026C113.167 28.026 113.038 27.9678 112.967 27.8805C112.797 28.1061 112.384 28.0406 112.291 27.7713L103.17 1.68828C103.128 1.57183 103.149 1.43356 103.22 1.33167C103.291 1.22978 103.405 1.16429 103.533 1.16429C103.697 1.16429 103.868 1.26617 103.925 1.419L112.967 27.3128L122.444 1.41173C122.501 1.25889 122.643 1.15701 122.8 1.15701C122.928 1.15701 123.056 1.22251 123.127 1.32439C123.198 1.42628 123.227 1.56456 123.184 1.681L113.643 27.764C113.579 27.9242 113.437 28.026 113.28 28.026Z" fill="white"/>
<path d="M129.196 1.12109H128.335V28.0702H129.196V1.12109Z" fill="white"/>
<path d="M129.196 28.4559H128.335C128.122 28.4559 127.958 28.2812 127.958 28.0702V1.12107C127.958 0.910015 128.129 0.735352 128.335 0.735352H129.196C129.409 0.735352 129.573 0.910015 129.573 1.12107V28.0702C129.573 28.2812 129.409 28.4559 129.196 28.4559ZM128.712 27.6844H128.819V1.50678H128.712V27.6844Z" fill="white"/>
<path d="M129.623 28.5065H127.908V0.684082H129.623V28.5065ZM128.755 27.6332H128.769V1.5574H128.755V27.6332Z" fill="white"/>
<path d="M129.623 28.8922H127.908C127.695 28.8922 127.531 28.7175 127.531 28.5065V0.684054C127.531 0.473003 127.702 0.29834 127.908 0.29834H129.623C129.836 0.29834 130 0.473003 130 0.684054V28.5065C130 28.7175 129.829 28.8922 129.623 28.8922ZM128.285 28.1135H129.239V1.07705H128.285V28.1135ZM128.769 28.0261C128.556 28.0261 128.378 27.8515 128.378 27.6404V1.55737C128.378 1.34632 128.549 1.17166 128.755 1.17166C128.961 1.17166 129.146 1.34632 129.146 1.55737V27.6332C129.153 27.8515 128.983 28.0261 128.769 28.0261Z" fill="white"/>
<path d="M28.0818 8.99512V14.3515L13.9875 29.5035L0.0284587 14.3515L0 8.99512L13.9875 24.1908L28.0818 8.99512Z" fill="white"/>
<path d="M28.0818 8.9954L28.0533 4.05388L24.2825 0.342285H3.74234L0 4.05388V8.9954L3.79926 5.12369H24.2825L28.0818 8.9954Z" fill="#FA3296"/>
</svg>
